<svg width="915" height="507" viewBox="0 0 915 507" fill="none" xmlns="http://www.w3.org/2000/svg">
<path d="M26.0666 51.9333C40.3333 80.4666 97.1333 194.467 152.333 305.267L252.867 507H265.933H279.133L277 502.867C275.8 500.6 275 498.6 275.267 498.467C275.533 498.2 281.533 498.333 288.733 498.733C301.533 499.267 301.8 499.4 303.8 503.133L305.8 507H365.133C417.533 507 424.467 506.733 423.8 505C423.4 503.933 422.6 502.067 422.2 501C421.533 499.267 423.4 499 434.733 499H448.067L449.667 503C450.6 505.133 451.8 507 452.467 507C453.133 507 455.133 503.8 456.867 499.933C458.6 496.2 469.933 471.133 482.067 444.333C544.467 306.467 576.6 235.133 590.067 205.4L605 172.333H681.667H758.333L763.933 159.267C767 152.2 769.933 145.267 770.467 143.933C771.267 141.8 766.467 141.667 678.333 141.933L585.267 142.333L575 165C560.333 197.667 514.467 299 477.4 381C459.8 419.8 445.133 452.067 444.867 452.6C444.467 453.133 393.267 351.667 331 227L217.667 0.333307H208.333H198.867L201 4.33331L203.133 8.33331H189.533H176.067L174.6 4.33331L173.133 0.333307H111.933C54.1999 0.333307 50.7333 0.46664 51.6666 2.59997C54.7333 10.0666 54.5999 10.2 46.8666 9.26664C42.8666 8.73331 36.8666 8.33331 33.5333 8.33331C27.9333 8.33331 27.1333 7.93331 25.6666 4.33331L24.0666 0.333307H12.1999H0.333252L26.0666 51.9333ZM203.267 21.6666H209.667L214.333 31C216.867 36.0666 219 40.8666 219 41.6666C219 43.1333 209.933 43.4 199.533 42.2L192.733 41.4L187.933 31.5333C185.133 26.0666 183 21.2666 183 20.7333C183 20.3333 186.2 20.3333 190.067 20.8666C193.8 21.2666 199.8 21.6666 203.267 21.6666ZM66.4666 32.3333L71.9333 43.1333L58.4666 42.7333L44.9999 42.3333L40.0666 33C37.2666 27.8 34.9999 23.2666 34.9999 22.6C34.9999 22.0666 40.8666 21.6666 48.0666 21.6666H60.9999L66.4666 32.3333ZM71.6666 56.3333H78.5999L83.6666 66.3333C86.4666 71.9333 88.3333 76.7333 87.9333 77.1333C87.5333 77.5333 81.5333 77.4 74.7333 76.8666L62.0666 75.9333L57.2666 66.2C54.4666 60.7333 52.3333 55.9333 52.3333 55.4C52.3333 55 55.1333 55 58.4666 55.5333C61.9333 55.9333 67.7999 56.3333 71.6666 56.3333ZM224.067 55.8C226.2 56.4666 228.6 59.5333 231.8 65.8C234.2 70.8666 236.333 75.2666 236.333 75.6666C236.333 76.0666 230.467 76.3333 223.267 76.3333H210.2L205.267 66.3333C202.6 60.7333 200.333 55.9333 200.333 55.6666C200.333 54.7333 220.467 54.8666 224.067 55.8ZM100.6 99.6666C103.4 104.733 105.667 109.4 105.667 109.933C105.667 110.6 99.7999 111 92.5999 111H79.5333L74.5999 101C71.9333 95.4 69.6666 90.6 69.6666 90.2C69.6666 89.9333 75.5333 89.8 82.5999 89.9333L95.5333 90.3333L100.6 99.6666ZM248.733 99.6666C251.4 105.267 253.667 110.067 253.667 110.333C253.667 111.267 233.533 111.133 229.933 110.2C227.8 109.533 225.4 106.467 222.2 100.2C219.8 95.1333 217.667 90.7333 217.667 90.3333C217.667 89.9333 223.533 89.6666 230.733 89.6666H243.8L248.733 99.6666ZM104.2 124.333H113.133L118.067 134.333C120.733 139.933 123 144.733 123 145C123 145.933 107.267 145.8 101.267 144.733C96.5999 144.067 95.7999 143.267 91.5333 134.867C85.9333 123.533 85.7999 122.467 91.1333 123.533C93.3999 123.933 99.2666 124.333 104.2 124.333ZM254.467 123.8L261.267 124.6L266.2 134.6C268.867 140.2 270.867 144.867 270.6 145.133C270.333 145.533 264.2 145.4 257.133 144.867L244.2 143.933L239.533 134.867C237 129.8 235 125.133 235 124.333C235 122.867 244.067 122.6 254.467 123.8ZM129.133 158.733C129.933 159.267 132.867 164.067 135.533 169.267L140.333 179H127H113.667L108.333 168.333L103 157.667H115.267C122.067 157.667 128.333 158.2 129.133 158.733ZM283 168.333L288.333 179H275H261.667L256.333 168.333L251 157.667H264.333H277.667L283 168.333ZM287.8 192.333H295L299.933 202.333C302.6 207.8 304.467 212.6 303.933 213.133C303.533 213.533 297.533 213.533 290.6 213L278.2 212.067L273.267 202.2C270.6 196.733 268.333 191.933 268.333 191.4C268.333 191 271.133 191 274.467 191.533C277.933 191.933 283.933 192.333 287.8 192.333ZM152.333 203L157.667 213.667H147.8C131.267 213.667 130.867 213.4 125.267 202.2L120.333 192.333H133.667H147L152.333 203ZM162.067 226.867C164.067 227.667 167 231.4 170.067 237.4C172.733 242.467 174.733 246.867 174.467 247.133C174.2 247.4 168.067 247.4 161 247L148.067 246.333L142.867 237C140.067 231.8 137.8 227.267 137.667 226.6C137.667 225.267 158.2 225.4 162.067 226.867ZM310.333 226.467C312.067 227.133 321.667 243.933 321.667 246.333C321.667 246.733 315.8 247 308.6 247H295.533L290.6 237C287.933 231.4 285.667 226.6 285.667 226.333C285.667 225.4 307.8 225.533 310.333 226.467ZM186.333 269.667C188.867 274.733 191 279.533 191 280.333C191 281.8 172.467 282.2 167.533 280.867C165.8 280.467 163.133 276.6 159.933 270.2L155 260.333H168.333H181.667L186.333 269.667ZM334.067 270.333C336.733 275.933 339 280.733 339 281C339 281.933 318.867 281.8 315.267 280.867C313.133 280.2 310.733 277.133 307.533 270.867C305.133 265.8 303 261.4 303 261C303 260.6 308.867 260.333 316.067 260.333H329.133L334.067 270.333ZM192.867 294.467C199.133 295.4 199.267 295.4 204.067 305.133C206.733 310.467 208.6 315.133 208.333 315.533C207.933 315.8 201.933 315.667 194.867 315.4L182.067 314.6L177.267 304.867C174.467 299.4 172.333 294.6 172.333 294.333C172.333 293.4 185.533 293.533 192.867 294.467ZM339.8 294.467L346.6 295.267L351.533 305.267C354.2 310.867 356.2 315.533 355.933 315.8C355.667 316.2 349.533 316.067 342.467 315.533L329.533 314.6L324.2 304.067L319 293.667H325.933C329.8 293.667 336.067 294.067 339.8 294.467ZM220.733 338.333C223.4 343.933 225.667 348.733 225.667 349.133C225.667 349.4 219.8 349.533 212.733 349.4L199.667 349L194.733 339.667C191.933 334.467 189.667 329.933 189.667 329.267C189.667 328.733 195.533 328.333 202.733 328.333H215.8L220.733 338.333ZM367.667 338.467C370.2 344.067 372.333 348.867 372.333 349.133C372.333 349.4 366.6 349.667 359.667 349.667H347L341.667 339L336.333 328.333H349.667H362.867L367.667 338.467ZM229 363C232.733 363 233.533 363.8 238.067 373.133C240.867 378.733 242.867 383.533 242.6 383.8C242.333 384.067 236.333 383.933 229.267 383.4L216.333 382.6L211.667 373.533C209.133 368.6 207 363.8 207 362.867C207 361.667 209.4 361.533 216.067 362.067C221 362.6 226.867 363 229 363ZM371 362.867L379.8 363L384.733 373C387.4 378.6 389.667 383.4 389.667 383.667C389.667 384.6 380.867 384.467 371.4 383.533L363.4 382.6L358.6 372.867C355.8 367.4 353.667 362.733 353.667 362.333C353.667 361.933 355.667 361.933 358.067 362.2C360.333 362.467 366.2 362.733 371 362.867ZM251.933 400.6C253.133 403 255.533 407.8 257.267 411.267L260.2 417.667H247.267H234.333L228.6 407L222.867 396.333H236.2H249.533L251.933 400.6ZM396.067 397.533C397 398.067 399.667 402.467 402.067 407.133C404.333 411.8 406.467 416.067 406.733 416.6C407 417.267 401.133 417.667 393.8 417.667H380.333L375.667 407.667C373.133 402.067 371 397.267 371 397C371 395.8 394.2 396.333 396.067 397.533ZM258.867 431H267.8L272.733 441.133C275.533 446.733 277.533 451.667 277.133 451.933C276.867 452.333 270.733 452.2 263.667 451.667L250.867 450.733L246.333 441.533C240.467 430.2 240.467 429.133 245.8 430.2C248.067 430.6 253.933 431 258.867 431ZM419 441.667L424.333 452.333H414.467C397.933 452.333 397.533 452.067 391.933 440.867L387 431H400.333H413.667L419 441.667ZM289.667 475L295 485.667H281.667H268.333L263 475L257.667 464.333H271H284.333L289.667 475ZM424.867 465.133C431.133 466.067 431.267 466.067 436.067 475.8C438.733 481.133 440.6 485.933 440.2 486.2C439.8 486.6 433.8 486.6 426.867 486.067L414.2 485.267L409.667 475.933C407.133 470.867 404.867 466.067 404.6 465.533C404.067 464.067 415.933 463.933 424.867 465.133Z" fill="white"/>
<path d="M493.267 67.9333C464.733 132.2 424.867 221.667 421 230.333C419.933 232.467 415.933 241.533 411.933 250.467L404.733 266.6L412.867 283.4C417.267 292.6 421.267 300.2 421.667 300.2C422.067 300.333 430.2 282.467 439.933 260.6C449.667 238.867 475.667 180.467 497.8 131C519.8 81.5333 539 38.4666 540.467 35.2666L543 29.5333L663.267 29.9333C783.4 30.3333 783.667 30.4666 794.333 33.4C837.4 45.5333 870.2 78.7333 881.133 121.4C884.2 133 884.467 136.2 883.933 153.667C883.267 174.467 881.8 181.667 874.867 198.6C864.467 223.267 842.6 246.6 818.333 258.6C811.4 262.067 803 265.133 789.667 269C787.8 269.667 773.267 270.467 757.267 270.867L728.333 271.667L751.133 311C763.667 332.6 781.667 363.533 791 379.667C800.2 395.8 816.067 423.133 826.067 440.467C836.067 457.667 844.6 472.867 845.133 474.067C845.933 476.067 839.8 476.333 766.333 476.6L686.867 477L682.067 468.333C679.4 463.533 671.8 450.333 665.267 439C658.6 427.667 651.667 415.533 649.8 412.2C628.2 373.8 595.533 317.933 595 318.333C594.467 318.6 591 325.933 587.133 334.6L580.2 350.467L623.8 426.333C647.8 468.2 668.2 503.4 669.4 504.733C671.267 506.867 678.2 507 784.6 507C846.733 507 897.667 506.467 897.667 505.8C897.667 505.267 882.867 479.267 864.867 448.2C846.733 417.133 825.267 379.933 817 365.667C808.733 351.4 797.133 331.267 791.133 321C785.133 310.733 780.333 301.933 780.333 301.4C780.333 300.867 782.6 300.067 785.4 299.667C809 295.667 828.333 288.2 847.267 275.533C875.8 256.6 896.867 228.733 907.533 196.067C916.867 167.133 916.6 131.267 906.733 102.333C891.8 58.8666 855.933 22.7333 813 8.46664C788.467 0.333307 789.8 0.333307 650.333 0.333307H523.4L493.267 67.9333Z" fill="#017918"/>
</svg>
